<?xml version="1.0" encoding="UTF-8" standalone="no"?>
<!-- Created with Inkscape (http://www.inkscape.org/) -->

<svg
   xmlns:dc="http://purl.org/dc/elements/1.1/"
   xmlns:cc="http://creativecommons.org/ns#"
   xmlns:rdf="http://www.w3.org/1999/02/22-rdf-syntax-ns#"
   xmlns:svg="http://www.w3.org/2000/svg"
   xmlns="http://www.w3.org/2000/svg"
   xmlns:sodipodi="http://sodipodi.sourceforge.net/DTD/sodipodi-0.dtd"
   xmlns:inkscape="http://www.inkscape.org/namespaces/inkscape"
   width="205"
   height="165"
   viewBox="0 0 205 165"
   id="svg2"
   version="1.1"
   inkscape:version="0.91 r13725"
   sodipodi:docname="logo.svg">
  <defs
     id="defs4" />
  <sodipodi:namedview
     id="base"
     pagecolor="#ffffff"
     bordercolor="#666666"
     borderopacity="1.0"
     inkscape:pageopacity="0.0"
     inkscape:pageshadow="2"
     inkscape:zoom="1.4"
     inkscape:cx="523.77652"
     inkscape:cy="583.37107"
     inkscape:document-units="px"
     inkscape:current-layer="layer1"
     showgrid="false"
     inkscape:window-width="3840"
     inkscape:window-height="2082"
     inkscape:window-x="0"
     inkscape:window-y="32"
     inkscape:window-maximized="1"
     units="px">
    <inkscape:grid
       type="xygrid"
       id="grid4136" />
  </sodipodi:namedview>
  <metadata
     id="metadata7">
    <rdf:RDF>
      <cc:Work
         rdf:about="">
        <dc:format>image/svg+xml</dc:format>
        <dc:type
           rdf:resource="http://purl.org/dc/dcmitype/StillImage" />
        <dc:title></dc:title>
      </cc:Work>
    </rdf:RDF>
  </metadata>
  <g
     inkscape:label="Layer 1"
     inkscape:groupmode="layer"
     id="layer1"
     transform="translate(0,-887.36213)">
    <path
       inkscape:connector-curvature="0"
       id="path4161"
       d="m 13.000029,890.64141 c -5.5401011,0 -10.0000007,4.4599 -10.0000007,10 l 0,80 c 0,5.54009 4.4598996,9.99999 10.0000007,9.99999 l 39.999996,0 47.910195,-95.82029 c -1.817397,-2.4701 -4.594794,-4.1797 -7.910194,-4.1797 l -79.999997,0 z"
       style="color:#000000;clip-rule:nonzero;display:inline;overflow:visible;visibility:visible;opacity:1;isolation:auto;mix-blend-mode:normal;color-interpolation:sRGB;color-interpolation-filters:linearRGB;solid-color:#000000;solid-opacity:1;fill:#ffcc00;fill-opacity:1;fill-rule:nonzero;stroke:none;stroke-width:0.15899999;stroke-linecap:butt;stroke-linejoin:bevel;stroke-miterlimit:4;stroke-dasharray:none;stroke-dashoffset:0;stroke-opacity:1;color-rendering:auto;image-rendering:auto;shape-rendering:auto;text-rendering:auto;enable-background:accumulate" />
    <path
       inkscape:connector-curvature="0"
       id="rect4138"
       d="m 153.00002,890.64141 a 50.000001,50.000001 0 0 0 -39.9805,20.0586 l 39.9805,79.94139 a 50.000001,50.000001 0 0 0 50.00001,-49.99999 50.000001,50.000001 0 0 0 -50.00001,-50 z"
       style="color:#000000;clip-rule:nonzero;display:inline;overflow:visible;visibility:visible;opacity:1;isolation:auto;mix-blend-mode:normal;color-interpolation:sRGB;color-interpolation-filters:linearRGB;solid-color:#000000;solid-opacity:1;fill:#71c837;fill-opacity:1;fill-rule:nonzero;stroke:none;stroke-width:0.15899999;stroke-linecap:butt;stroke-linejoin:bevel;stroke-miterlimit:4;stroke-dasharray:none;stroke-dashoffset:0;stroke-opacity:1;color-rendering:auto;image-rendering:auto;shape-rendering:auto;text-rendering:auto;enable-background:accumulate" />
    <g
       style="font-style:normal;font-weight:normal;font-size:3.00483179px;line-height:125%;font-family:sans-serif;letter-spacing:0px;word-spacing:0px;fill:#000000;fill-opacity:1;stroke:none;stroke-width:1px;stroke-linecap:butt;stroke-linejoin:miter;stroke-opacity:1"
       id="text4148"
       transform="matrix(10,0,0,10,-2997,-4382.972)">
      <path
         d="m 301.91763,540.44737 q 0,0.43136 -0.18486,0.71453 -0.18487,0.2817 -0.51206,0.36093 l 0.48858,0.51058 -0.24356,0 -0.41375,-0.48417 -0.0484,0.003 -0.0455,0 q -0.44749,0 -0.70279,-0.29637 Q 300,540.95795 300,540.44443 q 0,-0.51205 0.25676,-0.80549 0.25823,-0.29491 0.70426,-0.29491 0.44896,0 0.70279,0.29638 0.25382,0.2949 0.25382,0.80696 z m -1.75477,0 q 0,0.4607 0.20541,0.71306 0.20541,0.25089 0.58981,0.25089 0.38734,0 0.59129,-0.24942 0.2054,-0.24943 0.2054,-0.71453 0,-0.46364 -0.2054,-0.71013 -0.20395,-0.24796 -0.58835,-0.24796 -0.38294,0 -0.59129,0.24943 -0.20687,0.24942 -0.20687,0.70866 z"
         style="font-style:normal;font-variant:normal;font-weight:300;font-stretch:normal;font-family:'Open Sans';-inkscape-font-specification:'Open Sans Light';fill:#000000;fill-opacity:1"
         id="path4166"
         inkscape:connector-curvature="0" />
      <path
         d="m 303.98639,539.37778 0,1.38797 q 0,0.36974 -0.21421,0.57808 -0.21421,0.20834 -0.59715,0.20834 -0.37267,0 -0.58248,-0.20834 -0.20835,-0.20981 -0.20835,-0.58395 l 0,-1.3821 0.15113,0 0,1.38797 q 0,0.30958 0.17166,0.48271 0.17166,0.17166 0.48564,0.17166 0.30665,0 0.47538,-0.16873 0.16873,-0.17019 0.16873,-0.47097 l 0,-1.40264 0.14965,0 z"
         style="font-style:normal;font-variant:normal;font-weight:300;font-stretch:normal;font-family:'Open Sans';-inkscape-font-specification:'Open Sans Light';fill:#000000;fill-opacity:1"
         id="path4168"
         inkscape:connector-curvature="0" />
      <path
         d="m 305.60178,540.76575 -0.87152,0 -0.29931,0.75708 -0.16579,0 0.86271,-2.15386 0.0954,0 0.84511,2.15386 -0.16873,0 -0.29784,-0.75708 z m -0.81723,-0.13498 0.76735,0 -0.29198,-0.77322 q -0.0367,-0.091 -0.088,-0.25236 -0.0396,0.14085 -0.0866,0.2553 l -0.30078,0.77028 z"
         style="font-style:normal;font-variant:normal;font-weight:300;font-stretch:normal;font-family:'Open Sans';-inkscape-font-specification:'Open Sans Light';fill:#000000;fill-opacity:1"
         id="path4170"
         inkscape:connector-curvature="0" />
      <path
         d="m 307.99919,540.42976 q 0,0.53993 -0.28317,0.81723 -0.28317,0.27584 -0.8319,0.27584 l -0.51353,0 0,-2.14505 0.57955,0 q 0.51352,0 0.78055,0.26849 0.2685,0.2685 0.2685,0.78349 z m -0.16286,0.006 q 0,-0.4607 -0.23475,-0.69252 -0.23329,-0.23329 -0.68665,-0.23329 l -0.39468,0 0,1.88096 0.35506,0 q 0.96102,0 0.96102,-0.95515 z"
         style="font-style:normal;font-variant:normal;font-weight:300;font-stretch:normal;font-family:'Open Sans';-inkscape-font-specification:'Open Sans Light';fill:#000000;fill-opacity:1"
         id="path4172"
         inkscape:connector-curvature="0" />
      <path
         d="m 308.64476,540.58822 0,0.93461 -0.14966,0 0,-2.14505 0.51059,0 q 0.39908,0 0.58982,0.14818 0.19073,0.14672 0.19073,0.4431 0,0.21568 -0.11444,0.36387 -0.11297,0.14818 -0.34479,0.21274 l 0.58248,0.97716 -0.179,0 -0.55314,-0.93461 -0.53259,0 z m 0,-0.12912 0.40935,0 q 0.27143,0 0.42109,-0.12031 0.14965,-0.12177 0.14965,-0.35799 0,-0.24503 -0.14672,-0.35653 -0.14672,-0.11151 -0.47831,-0.11151 l -0.35506,0 0,0.94634 z"
         style="font-style:normal;font-variant:normal;font-weight:300;font-stretch:normal;font-family:'Open Sans';-inkscape-font-specification:'Open Sans Light';fill:#000000;fill-opacity:1"
         id="path4174"
         inkscape:connector-curvature="0" />
      <path
         d="m 310.27922,541.52283 0,-2.14505 0.14966,0 0,2.14505 -0.14966,0 z"
         style="font-style:normal;font-variant:normal;font-weight:300;font-stretch:normal;font-family:'Open Sans';-inkscape-font-specification:'Open Sans Light';fill:#000000;fill-opacity:1"
         id="path4176"
         inkscape:connector-curvature="0" />
      <path
         d="m 312.22033,540.96969 q 0,0.2685 -0.19807,0.42549 -0.1966,0.15699 -0.52379,0.15699 -0.39321,0 -0.60302,-0.0866 l 0,-0.14966 q 0.23182,0.0983 0.59128,0.0983 0.2641,0 0.41815,-0.12031 0.15553,-0.12177 0.15553,-0.31838 0,-0.12178 -0.0514,-0.20101 -0.0514,-0.0807 -0.16726,-0.14672 -0.11591,-0.066 -0.3404,-0.14232 -0.32865,-0.11297 -0.45483,-0.24355 -0.12471,-0.13205 -0.12471,-0.35066 0,-0.24062 0.1878,-0.39175 0.18927,-0.15258 0.48565,-0.15258 0.30224,0 0.5678,0.11444 l -0.0543,0.12911 q -0.26703,-0.11151 -0.51059,-0.11151 -0.23769,0 -0.37854,0.11004 -0.14085,0.11004 -0.14085,0.29931 0,0.11885 0.0426,0.19514 0.044,0.0763 0.14232,0.13792 0.0983,0.0602 0.33745,0.14525 0.2509,0.0866 0.37708,0.16873 0.12617,0.0807 0.1834,0.18487 0.0587,0.1027 0.0587,0.24942 z"
         style="font-style:normal;font-variant:normal;font-weight:300;font-stretch:normal;font-family:'Open Sans';-inkscape-font-specification:'Open Sans Light';fill:#000000;fill-opacity:1"
         id="path4178"
         inkscape:connector-curvature="0" />
      <path
         d="m 312.6737,541.52283 0,-2.14505 0.14965,0 0,2.14505 -0.14965,0 z"
         style="font-style:normal;font-variant:normal;font-weight:300;font-stretch:normal;font-family:'Open Sans';-inkscape-font-specification:'Open Sans Light';fill:#000000;fill-opacity:1"
         id="path4180"
         inkscape:connector-curvature="0" />
      <path
         d="m 314.34631,539.48195 q -0.40348,0 -0.6353,0.25823 -0.23182,0.25822 -0.23182,0.70719 0,0.45923 0.21862,0.71306 0.21861,0.25382 0.62503,0.25382 0.26996,0 0.49591,-0.069 l 0,0.13204 q -0.21274,0.0748 -0.53113,0.0748 -0.4519,0 -0.71159,-0.29197 -0.2597,-0.29198 -0.2597,-0.81577 0,-0.32718 0.12325,-0.57661 0.12471,-0.24942 0.35653,-0.38441 0.23328,-0.13644 0.5414,-0.13644 0.31398,0 0.56194,0.11737 l -0.0602,0.13498 q -0.23475,-0.11737 -0.49298,-0.11737 z"
         style="font-style:normal;font-variant:normal;font-weight:300;font-stretch:normal;font-family:'Open Sans';-inkscape-font-specification:'Open Sans Light';fill:#000000;fill-opacity:1"
         id="path4182"
         inkscape:connector-curvature="0" />
    </g>
  </g>
</svg>
